<mxfile host="app.diagrams.net" agent="Mozilla/5.0 (Windows NT 10.0; Win64; x64) AppleWebKit/537.36 (KHTML, like Gecko) Chrome/138.0.0.0 Safari/537.36" version="28.0.7">
  <diagram name="解释性时序混合设计研究" id="xxx">
    <mxGraphModel dx="1183" dy="619" grid="1" gridSize="10" guides="1" tooltips="1" connect="1" arrows="1" fold="1" page="1" pageScale="1" pageWidth="1600" pageHeight="1400" math="0" shadow="0">
      <root>
        <mxCell id="0" />
        <mxCell id="1" parent="0" />
        <mxCell id="2" value="职业教育校企合作人才培养的解释性时序混合设计研究" style="text;html=1;strokeColor=none;fillColor=none;align=center;verticalAlign=middle;whiteSpace=wrap;rounded=0;fontSize=20;fontStyle=1;fontColor=#003366;" parent="1" vertex="1">
          <mxGeometry x="400" y="20" width="800" height="40" as="geometry" />
        </mxCell>
        <mxCell id="3" value="解释性时序混合设计框架" style="rounded=1;whiteSpace=wrap;html=1;fillColor=#e1d5e7;strokeColor=#9673a6;fontSize=18;fontStyle=1;" parent="1" vertex="1">
          <mxGeometry x="600" y="100" width="400" height="60" as="geometry" />
        </mxCell>
        <mxCell id="4" value="研究问题" style="text;html=1;strokeColor=none;fillColor=none;align=center;verticalAlign=middle;whiteSpace=wrap;rounded=0;fontSize=16;fontStyle=1;fontColor=#003366;" parent="1" vertex="1">
          <mxGeometry x="100" y="200" width="100" height="30" as="geometry" />
        </mxCell>
        <mxCell id="5" value="职业教育校企合作人才培养中的供需错位现象、锁定机理及其破解路径是什么？" style="rounded=1;whiteSpace=wrap;html=1;fillColor=#fff2cc;strokeColor=#d6b656;fontSize=14;" parent="1" vertex="1">
          <mxGeometry x="50" y="240" width="200" height="80" as="geometry" />
        </mxCell>
        <mxCell id="70" value="核心概念界定" style="text;html=1;strokeColor=none;fillColor=none;align=center;verticalAlign=middle;whiteSpace=wrap;rounded=0;fontSize=16;fontStyle=1;fontColor=#003366;" parent="1" vertex="1">
          <mxGeometry x="350" y="200" width="150" height="30" as="geometry" />
        </mxCell>
        <mxCell id="71" value="供需错位：人才培养供给与产业需求的结构性失衡" style="rounded=1;whiteSpace=wrap;html=1;fillColor=#ffeaa7;strokeColor=#fdcb6e;fontSize=13;align=left;" parent="1" vertex="1">
          <mxGeometry x="332" y="240" width="200" height="30" as="geometry" />
        </mxCell>
        <mxCell id="72" value="锁定机理：导致供需错位持续化的内在结构机制" style="rounded=1;whiteSpace=wrap;html=1;fillColor=#fab1a0;strokeColor=#e17055;fontSize=13;align=left;" parent="1" vertex="1">
          <mxGeometry x="332" y="280" width="200" height="30" as="geometry" />
        </mxCell>
        <mxCell id="73" value="破解路径：突破锁定状态的系统性解决方案" style="rounded=1;whiteSpace=wrap;html=1;fillColor=#74b9ff;strokeColor=#0984e3;fontSize=13;align=left;" parent="1" vertex="1">
          <mxGeometry x="332" y="320" width="200" height="30" as="geometry" />
        </mxCell>
        <mxCell id="68" value="设计优势" style="text;html=1;strokeColor=none;fillColor=none;align=center;verticalAlign=middle;whiteSpace=wrap;rounded=0;fontSize=16;fontStyle=1;fontColor=#003366;" parent="1" vertex="1">
          <mxGeometry x="1300" y="200" width="100" height="30" as="geometry" />
        </mxCell>
        <mxCell id="69" value="• 时序性：定量扫描→定性挖掘→案例验证&lt;br&gt;• 解释性：从是什么到为什么&lt;br&gt;• 互补性：数据类型、分析视角、证据来源&lt;br&gt;• 系统性：现状-机理-对策完整链条" style="rounded=1;whiteSpace=wrap;html=1;fillColor=#eeeeee;strokeColor=#999999;fontSize=13;align=left;" parent="1" vertex="1">
          <mxGeometry x="1200" y="240" width="300" height="120" as="geometry" />
        </mxCell>
        <mxCell id="6" value="阶段一：定量扫描&lt;br/&gt;(QUAN)" style="rounded=1;whiteSpace=wrap;html=1;fillColor=#d5e8d4;strokeColor=#82b366;fontSize=16;fontStyle=1;" parent="1" vertex="1">
          <mxGeometry x="150" y="380" width="160" height="50" as="geometry" />
        </mxCell>
        <mxCell id="7" value="目标" style="text;html=1;strokeColor=none;fillColor=none;align=left;verticalAlign=middle;whiteSpace=wrap;rounded=0;fontSize=12;fontStyle=1;" parent="1" vertex="1">
          <mxGeometry x="80" y="450" width="40" height="20" as="geometry" />
        </mxCell>
        <mxCell id="8" value="描绘供需错位现状图谱" style="text;html=1;strokeColor=none;fillColor=none;align=left;verticalAlign=middle;whiteSpace=wrap;rounded=0;fontSize=13;" parent="1" vertex="1">
          <mxGeometry x="120" y="450" width="200" height="20" as="geometry" />
        </mxCell>
        <mxCell id="9" value="工具" style="text;html=1;strokeColor=none;fillColor=none;align=left;verticalAlign=middle;whiteSpace=wrap;rounded=0;fontSize=12;fontStyle=1;" parent="1" vertex="1">
          <mxGeometry x="80" y="480" width="40" height="20" as="geometry" />
        </mxCell>
        <mxCell id="10" value="自编问卷（5个维度，32题项）" style="text;html=1;strokeColor=none;fillColor=none;align=left;verticalAlign=middle;whiteSpace=wrap;rounded=0;fontSize=13;" parent="1" vertex="1">
          <mxGeometry x="120" y="480" width="200" height="20" as="geometry" />
        </mxCell>
        <mxCell id="11" value="分析方法" style="text;html=1;strokeColor=none;fillColor=none;align=left;verticalAlign=middle;whiteSpace=wrap;rounded=0;fontSize=12;fontStyle=1;" parent="1" vertex="1">
          <mxGeometry x="80" y="510" width="60" height="20" as="geometry" />
        </mxCell>
        <mxCell id="52" value="描述统计分析&lt;br&gt;探索性因子分析&lt;br&gt;结构方程建模" style="text;html=1;strokeColor=none;fillColor=none;align=left;verticalAlign=middle;whiteSpace=wrap;rounded=0;fontSize=13;" parent="1" vertex="1">
          <mxGeometry x="140" y="540" width="140" height="60" as="geometry" />
        </mxCell>
        <mxCell id="38" value="样本：湖南省15所职业院校&lt;br&gt;教师：n=345&lt;br&gt;企业HR：n=156&lt;div&gt;&lt;br&gt;&lt;/div&gt;" style="rounded=1;whiteSpace=wrap;html=1;fillColor=#e6f3ff;strokeColor=#0066cc;fontSize=13;align=left;" parent="1" vertex="1">
          <mxGeometry x="80" y="620" width="150" height="80" as="geometry" />
        </mxCell>
        <mxCell id="12" value="阶段二：定性挖掘&lt;br/&gt;(QUAL)" style="rounded=1;whiteSpace=wrap;html=1;fillColor=#ffe6cc;strokeColor=#d79b00;fontSize=16;fontStyle=1;" parent="1" vertex="1">
          <mxGeometry x="590" y="380" width="160" height="50" as="geometry" />
        </mxCell>
        <mxCell id="13" value="目标" style="text;html=1;strokeColor=none;fillColor=none;align=left;verticalAlign=middle;whiteSpace=wrap;rounded=0;fontSize=12;fontStyle=1;" parent="1" vertex="1">
          <mxGeometry x="520" y="450" width="40" height="20" as="geometry" />
        </mxCell>
        <mxCell id="14" value="揭示供需锁定内在机理" style="text;html=1;strokeColor=none;fillColor=none;align=left;verticalAlign=middle;whiteSpace=wrap;rounded=0;fontSize=13;" parent="1" vertex="1">
          <mxGeometry x="560" y="450" width="200" height="20" as="geometry" />
        </mxCell>
        <mxCell id="15" value="工具" style="text;html=1;strokeColor=none;fillColor=none;align=left;verticalAlign=middle;whiteSpace=wrap;rounded=0;fontSize=12;fontStyle=1;" parent="1" vertex="1">
          <mxGeometry x="520" y="480" width="40" height="20" as="geometry" />
        </mxCell>
        <mxCell id="16" value="半结构化访谈提纲" style="text;html=1;strokeColor=none;fillColor=none;align=left;verticalAlign=middle;whiteSpace=wrap;rounded=0;fontSize=13;" parent="1" vertex="1">
          <mxGeometry x="560" y="480" width="200" height="20" as="geometry" />
        </mxCell>
        <mxCell id="17" value="分析方法" style="text;html=1;strokeColor=none;fillColor=none;align=left;verticalAlign=middle;whiteSpace=wrap;rounded=0;fontSize=12;fontStyle=1;" parent="1" vertex="1">
          <mxGeometry x="520" y="510" width="60" height="20" as="geometry" />
        </mxCell>
        <mxCell id="39" value="样本：深度访谈样本&lt;br&gt;院校管理者：n=12&lt;br&gt;企业负责人：n=8&lt;br&gt;一线教师：n=15&lt;div&gt;&lt;br&gt;&lt;/div&gt;" style="rounded=1;whiteSpace=wrap;html=1;fillColor=#fff2e6;strokeColor=#ff9900;fontSize=13;align=left;" parent="1" vertex="1">
          <mxGeometry x="520" y="620" width="150" height="90" as="geometry" />
        </mxCell>
        <mxCell id="18" value="阶段三：案例验证&lt;br/&gt;(CASE)" style="rounded=1;whiteSpace=wrap;html=1;fillColor=#f8cecc;strokeColor=#b85450;fontSize=16;fontStyle=1;" parent="1" vertex="1">
          <mxGeometry x="1030" y="380" width="160" height="50" as="geometry" />
        </mxCell>
        <mxCell id="19" value="目标" style="text;html=1;strokeColor=none;fillColor=none;align=left;verticalAlign=middle;whiteSpace=wrap;rounded=0;fontSize=12;fontStyle=1;" parent="1" vertex="1">
          <mxGeometry x="960" y="450" width="40" height="20" as="geometry" />
        </mxCell>
        <mxCell id="20" value="验证机理模型有效性" style="text;html=1;strokeColor=none;fillColor=none;align=left;verticalAlign=middle;whiteSpace=wrap;rounded=0;fontSize=13;" parent="1" vertex="1">
          <mxGeometry x="1000" y="450" width="200" height="20" as="geometry" />
        </mxCell>
        <mxCell id="21" value="工具" style="text;html=1;strokeColor=none;fillColor=none;align=left;verticalAlign=middle;whiteSpace=wrap;rounded=0;fontSize=12;fontStyle=1;" parent="1" vertex="1">
          <mxGeometry x="960" y="480" width="40" height="20" as="geometry" />
        </mxCell>
        <mxCell id="22" value="多源资料收集协议" style="text;html=1;strokeColor=none;fillColor=none;align=left;verticalAlign=middle;whiteSpace=wrap;rounded=0;fontSize=13;" parent="1" vertex="1">
          <mxGeometry x="1000" y="480" width="200" height="20" as="geometry" />
        </mxCell>
        <mxCell id="23" value="分析方法" style="text;html=1;strokeColor=none;fillColor=none;align=left;verticalAlign=middle;whiteSpace=wrap;rounded=0;fontSize=12;fontStyle=1;" parent="1" vertex="1">
          <mxGeometry x="960" y="510" width="60" height="20" as="geometry" />
        </mxCell>
        <mxCell id="54" value="案例研究法&lt;br&gt;过程追踪&lt;br&gt;模式匹配" style="text;html=1;strokeColor=none;fillColor=none;align=left;verticalAlign=middle;whiteSpace=wrap;rounded=0;fontSize=13;" parent="1" vertex="1">
          <mxGeometry x="1020" y="540" width="140" height="60" as="geometry" />
        </mxCell>
        <mxCell id="40" value="样本：长沙职业技术学院&lt;br&gt;与三一重工合作案例&lt;br&gt;追踪时间：2019-2023&lt;br&gt;资料类型：16类" style="rounded=1;whiteSpace=wrap;html=1;fillColor=#f0f0f0;strokeColor=#666666;fontSize=13;align=left;" parent="1" vertex="1">
          <mxGeometry x="960" y="620" width="150" height="80" as="geometry" />
        </mxCell>
        <mxCell id="24" value="三角互证&lt;br/&gt;(TRIANGULATION)" style="ellipse;whiteSpace=wrap;html=1;fillColor=#ffcccc;strokeColor=#cc0000;fontSize=16;fontStyle=1;" parent="1" vertex="1">
          <mxGeometry x="590" y="750" width="160" height="80" as="geometry" />
        </mxCell>
        <mxCell id="28" value="数据收集" style="rounded=1;whiteSpace=wrap;html=1;fillColor=#d5e8d4;strokeColor=#82b366;fontSize=16;fontStyle=1;" parent="1" vertex="1">
          <mxGeometry x="170" y="870" width="120" height="40" as="geometry" />
        </mxCell>
        <mxCell id="29" value="数据处理" style="rounded=1;whiteSpace=wrap;html=1;fillColor=#ffe6cc;strokeColor=#d79b00;fontSize=16;fontStyle=1;" parent="1" vertex="1">
          <mxGeometry x="610" y="870" width="120" height="40" as="geometry" />
        </mxCell>
        <mxCell id="30" value="模型验证" style="rounded=1;whiteSpace=wrap;html=1;fillColor=#f0f0f0;strokeColor=#666666;fontSize=16;fontStyle=1;" parent="1" vertex="1">
          <mxGeometry x="1050" y="870" width="120" height="40" as="geometry" />
        </mxCell>
        <mxCell id="31" value="模式构建" style="rounded=1;whiteSpace=wrap;html=1;fillColor=#ccffcc;strokeColor=#006600;fontSize=16;fontStyle=1;" parent="1" vertex="1">
          <mxGeometry x="1380" y="870" width="120" height="40" as="geometry" />
        </mxCell>
        <mxCell id="32" value="" style="endArrow=classic;html=1;rounded=0;exitX=1;exitY=0.5;exitDx=0;exitDy=0;entryX=0;entryY=0.5;entryDx=0;entryDy=0;strokeWidth=3;strokeColor=#82b366;" parent="1" source="28" target="29" edge="1">
          <mxGeometry relative="1" as="geometry" />
        </mxCell>
        <mxCell id="33" value="" style="endArrow=classic;html=1;rounded=0;exitX=1;exitY=0.5;exitDx=0;exitDy=0;entryX=0;entryY=0.5;entryDx=0;entryDy=0;strokeWidth=3;strokeColor=#d79b00;" parent="1" source="29" target="30" edge="1">
          <mxGeometry relative="1" as="geometry" />
        </mxCell>
        <mxCell id="34" value="" style="endArrow=classic;html=1;rounded=0;exitX=1;exitY=0.5;exitDx=0;exitDy=0;entryX=0;entryY=0.5;entryDx=0;entryDy=0;strokeWidth=3;strokeColor=#666666;" parent="1" source="30" target="31" edge="1">
          <mxGeometry relative="1" as="geometry" />
        </mxCell>
        <mxCell id="35" value="" style="endArrow=classic;html=1;rounded=0;exitX=0.5;exitY=0;exitDx=0;exitDy=0;entryX=0.2;entryY=1;entryDx=0;entryDy=0;entryPerimeter=0;strokeWidth=2;strokeColor=#cc0000;dashed=1;" parent="1" source="28" target="24" edge="1">
          <mxGeometry relative="1" as="geometry" />
        </mxCell>
        <mxCell id="36" value="" style="endArrow=classic;html=1;rounded=0;exitX=0.5;exitY=0;exitDx=0;exitDy=0;entryX=0.5;entryY=1;entryDx=0;entryDy=0;strokeWidth=2;strokeColor=#cc0000;dashed=1;" parent="1" source="29" target="24" edge="1">
          <mxGeometry relative="1" as="geometry" />
        </mxCell>
        <mxCell id="37" value="" style="endArrow=classic;html=1;rounded=0;exitX=0.5;exitY=0;exitDx=0;exitDy=0;entryX=0.8;entryY=1;entryDx=0;entryDy=0;entryPerimeter=0;strokeWidth=2;strokeColor=#cc0000;dashed=1;" parent="1" source="30" target="24" edge="1">
          <mxGeometry relative="1" as="geometry" />
        </mxCell>
        <mxCell id="63" value="阶段规划" style="text;html=1;strokeColor=none;fillColor=none;align=center;verticalAlign=middle;whiteSpace=wrap;rounded=0;fontSize=12;fontStyle=1;fontColor=#666666;" parent="1" vertex="1">
          <mxGeometry x="650" y="820" width="120" height="20" as="geometry" />
        </mxCell>
        <mxCell id="42" value="" style="endArrow=none;html=1;rounded=0;strokeWidth=2;strokeColor=#cccccc;" parent="1" edge="1">
          <mxGeometry relative="1" as="geometry">
            <mxPoint x="80" y="980" as="sourcePoint" />
            <mxPoint x="1520" y="980" as="targetPoint" />
          </mxGeometry>
        </mxCell>
        <mxCell id="41" value="研究产出" style="text;html=1;strokeColor=none;fillColor=none;align=center;verticalAlign=middle;whiteSpace=wrap;rounded=0;fontSize=18;fontStyle=1;fontColor=#003366;" parent="1" vertex="1">
          <mxGeometry x="700" y="1000" width="200" height="30" as="geometry" />
        </mxCell>
        <mxCell id="43" value="理论贡献" style="text;html=1;strokeColor=none;fillColor=none;align=center;verticalAlign=middle;whiteSpace=wrap;rounded=0;fontSize=16;fontStyle=1;fontColor=#003366;" parent="1" vertex="1">
          <mxGeometry x="150" y="1040" width="100" height="30" as="geometry" />
        </mxCell>
        <mxCell id="44" value="构建校企合作供需锁定理论模型&lt;br&gt;揭示三层锁定机制：认知-结构-制度&lt;br&gt;丰富职业教育产教融合理论体系" style="rounded=1;whiteSpace=wrap;html=1;fillColor=#e1f5fe;strokeColor=#0288d1;fontSize=13;align=left;" parent="1" vertex="1">
          <mxGeometry x="80" y="1080" width="240" height="80" as="geometry" />
        </mxCell>
        <mxCell id="45" value="实践价值" style="text;html=1;strokeColor=none;fillColor=none;align=center;verticalAlign=middle;whiteSpace=wrap;rounded=0;fontSize=16;fontStyle=1;fontColor=#003366;" parent="1" vertex="1">
          <mxGeometry x="560" y="1040" width="100" height="30" as="geometry" />
        </mxCell>
        <mxCell id="46" value="提供校企合作诊断评估工具&lt;br&gt;设计破解锁定状态操作路径&lt;br&gt;为政策制定提供实证依据" style="rounded=1;whiteSpace=wrap;html=1;fillColor=#f3e5f5;strokeColor=#7b1fa2;fontSize=13;align=left;" parent="1" vertex="1">
          <mxGeometry x="480" y="1080" width="240" height="80" as="geometry" />
        </mxCell>
        <mxCell id="47" value="方法创新" style="text;html=1;strokeColor=none;fillColor=none;align=center;verticalAlign=middle;whiteSpace=wrap;rounded=0;fontSize=16;fontStyle=1;fontColor=#003366;" parent="1" vertex="1">
          <mxGeometry x="960" y="1040" width="100" height="30" as="geometry" />
        </mxCell>
        <mxCell id="48" value="创新解释性时序混合设计应用&lt;br&gt;整合多元分析方法体系&lt;br&gt;建立质量效度评估标准" style="rounded=1;whiteSpace=wrap;html=1;fillColor=#fff3e0;strokeColor=#ff6f00;fontSize=13;align=left;" parent="1" vertex="1">
          <mxGeometry x="880" y="1080" width="240" height="80" as="geometry" />
        </mxCell>
        <mxCell id="49" value="政策建议" style="text;html=1;strokeColor=none;fillColor=none;align=center;verticalAlign=middle;whiteSpace=wrap;rounded=0;fontSize=16;fontStyle=1;fontColor=#003366;" parent="1" vertex="1">
          <mxGeometry x="1310" y="1040" width="100" height="30" as="geometry" />
        </mxCell>
        <mxCell id="50" value="完善校企合作制度框架&lt;br&gt;优化人才培养质量评价体系&lt;br&gt;建立动态调节反馈机制" style="rounded=1;whiteSpace=wrap;html=1;fillColor=#e8f5e8;strokeColor=#4caf50;fontSize=13;align=left;" parent="1" vertex="1">
          <mxGeometry x="1230" y="1080" width="240" height="80" as="geometry" />
        </mxCell>
        <mxCell id="55" value="研究特色" style="text;html=1;strokeColor=none;fillColor=none;align=center;verticalAlign=middle;whiteSpace=wrap;rounded=0;fontSize=16;fontStyle=1;fontColor=#003366;" parent="1" vertex="1">
          <mxGeometry x="200" y="1200" width="100" height="30" as="geometry" />
        </mxCell>
        <mxCell id="56" value="1. 问题导向：聚焦供需错位核心痛点" style="text;html=1;strokeColor=none;fillColor=none;align=left;verticalAlign=middle;whiteSpace=wrap;rounded=0;fontSize=13;fontColor=#666666;" parent="1" vertex="1">
          <mxGeometry x="120" y="1240" width="300" height="20" as="geometry" />
        </mxCell>
        <mxCell id="57" value="2. 方法创新：解释性时序混合设计首次运用" style="text;html=1;strokeColor=none;fillColor=none;align=left;verticalAlign=middle;whiteSpace=wrap;rounded=0;fontSize=13;fontColor=#666666;" parent="1" vertex="1">
          <mxGeometry x="120" y="1270" width="320" height="20" as="geometry" />
        </mxCell>
        <mxCell id="58" value="3. 理论深度：从现象描述到机理揭示" style="text;html=1;strokeColor=none;fillColor=none;align=left;verticalAlign=middle;whiteSpace=wrap;rounded=0;fontSize=13;fontColor=#666666;" parent="1" vertex="1">
          <mxGeometry x="120" y="1300" width="280" height="20" as="geometry" />
        </mxCell>
        <mxCell id="59" value="4. 实践价值：提供可操作的破解路径" style="text;html=1;strokeColor=none;fillColor=none;align=left;verticalAlign=middle;whiteSpace=wrap;rounded=0;fontSize=13;fontColor=#666666;" parent="1" vertex="1">
          <mxGeometry x="120" y="1330" width="280" height="20" as="geometry" />
        </mxCell>
        <mxCell id="60" value="质量保证措施" style="text;html=1;strokeColor=none;fillColor=none;align=center;verticalAlign=middle;whiteSpace=wrap;rounded=0;fontSize=16;fontStyle=1;fontColor=#003366;" parent="1" vertex="1">
          <mxGeometry x="900" y="1200" width="150" height="30" as="geometry" />
        </mxCell>
        <mxCell id="61" value="• 信度检验：Cronbach&#39;s α &amp;gt; 0.85&lt;br&gt;• 效度验证：专家评议+试测修正&lt;br&gt;• 编码一致性：双人独立编码κ &amp;gt; 0.80&lt;br&gt;• 案例三角验证：多源数据交叉印证&lt;br&gt;• 成员检核：关键发现反馈确认" style="rounded=1;whiteSpace=wrap;html=1;fillColor=#f8f9fa;strokeColor=#6c757d;fontSize=13;align=left;" parent="1" vertex="1">
          <mxGeometry x="800" y="1240" width="350" height="110" as="geometry" />
        </mxCell>
        <mxCell id="74" value="" style="endArrow=classic;html=1;rounded=0;exitX=0.5;exitY=1;exitDx=0;exitDy=0;entryX=0.2;entryY=0;entryDx=0;entryDy=0;entryPerimeter=0;strokeWidth=2;strokeColor=#82b366;" parent="1" source="6" target="24" edge="1">
          <mxGeometry relative="1" as="geometry" />
        </mxCell>
        <mxCell id="75" value="" style="endArrow=classic;html=1;rounded=0;exitX=0.5;exitY=1;exitDx=0;exitDy=0;entryX=0.5;entryY=0;entryDx=0;entryDy=0;strokeWidth=2;strokeColor=#d79b00;" parent="1" source="12" target="24" edge="1">
          <mxGeometry relative="1" as="geometry" />
        </mxCell>
        <mxCell id="76" value="" style="endArrow=classic;html=1;rounded=0;exitX=0.5;exitY=1;exitDx=0;exitDy=0;entryX=0.8;entryY=0;entryDx=0;entryDy=0;entryPerimeter=0;strokeWidth=2;strokeColor=#b85450;" parent="1" source="18" target="24" edge="1">
          <mxGeometry relative="1" as="geometry" />
        </mxCell>
        <mxCell id="77" value="" style="endArrow=classic;html=1;rounded=0;exitX=0.2;exitY=1;exitDx=0;exitDy=0;entryX=0.5;entryY=0;entryDx=0;entryDy=0;strokeWidth=2;strokeColor=#9673a6;" parent="1" source="3" target="6" edge="1">
          <mxGeometry relative="1" as="geometry" />
        </mxCell>
        <mxCell id="78" value="" style="endArrow=classic;html=1;rounded=0;exitX=0.5;exitY=1;exitDx=0;exitDy=0;entryX=0.5;entryY=0;entryDx=0;entryDy=0;strokeWidth=2;strokeColor=#9673a6;" parent="1" source="3" target="12" edge="1">
          <mxGeometry relative="1" as="geometry" />
        </mxCell>
        <mxCell id="79" value="" style="endArrow=classic;html=1;rounded=0;exitX=0.8;exitY=1;exitDx=0;exitDy=0;entryX=0.5;entryY=0;entryDx=0;entryDy=0;strokeWidth=2;strokeColor=#9673a6;" parent="1" source="3" target="18" edge="1">
          <mxGeometry relative="1" as="geometry" />
        </mxCell>
      </root>
    </mxGraphModel>
  </diagram>
</mxfile>
